<svg xmlns="http://www.w3.org/2000/svg" xmlns:xlink="http://www.w3.org/1999/xlink" viewBox="0 0 260.83 60.4"><defs><style>.cls-1{fill:url(#Degradado_sin_nombre_43);}.cls-2{fill:url(#Degradado_sin_nombre_43-2);}.cls-3{fill:url(#Degradado_sin_nombre_43-3);}.cls-4{fill:url(#Degradado_sin_nombre_43-4);}.cls-5{fill:url(#Degradado_sin_nombre_43-5);}.cls-6{fill:url(#Degradado_sin_nombre_43-6);}.cls-7{fill:url(#Degradado_sin_nombre_43-7);}.cls-8{fill:url(#Degradado_sin_nombre_43-8);}.cls-9{fill:url(#Degradado_sin_nombre_43-9);}.cls-10{fill:url(#Degradado_sin_nombre_43-10);}.cls-11{isolation:isolate;}.cls-12{fill:#9a2287;}</style><linearGradient id="Degradado_sin_nombre_43" x1="-689.22" y1="1217.73" x2="-688.22" y2="1217.73" gradientTransform="matrix(0, 30.57, 30.57, 0, -37219.05, 21070.54)" gradientUnits="userSpaceOnUse"><stop offset="0" stop-color="#ffdc81"/><stop offset="0.67" stop-color="#ff5a6e"/><stop offset="0.75" stop-color="#ff5a6e"/><stop offset="1" stop-color="#ff4ea6"/></linearGradient><linearGradient id="Degradado_sin_nombre_43-2" x1="-689.22" y1="1218.56" x2="-688.22" y2="1218.56" xlink:href="#Degradado_sin_nombre_43"/><linearGradient id="Degradado_sin_nombre_43-3" x1="-689.22" y1="1219.52" x2="-688.22" y2="1219.52" xlink:href="#Degradado_sin_nombre_43"/><linearGradient id="Degradado_sin_nombre_43-4" x1="-689.22" y1="1220.42" x2="-688.22" y2="1220.42" xlink:href="#Degradado_sin_nombre_43"/><linearGradient id="Degradado_sin_nombre_43-5" x1="-689.22" y1="1221.66" x2="-688.22" y2="1221.66" xlink:href="#Degradado_sin_nombre_43"/><linearGradient id="Degradado_sin_nombre_43-6" x1="-689.22" y1="1222.66" x2="-688.22" y2="1222.66" xlink:href="#Degradado_sin_nombre_43"/><linearGradient id="Degradado_sin_nombre_43-7" x1="-689.22" y1="1223.45" x2="-688.22" y2="1223.45" xlink:href="#Degradado_sin_nombre_43"/><linearGradient id="Degradado_sin_nombre_43-8" x1="-689.22" y1="1224.17" x2="-688.22" y2="1224.17" xlink:href="#Degradado_sin_nombre_43"/><linearGradient id="Degradado_sin_nombre_43-9" x1="-689.22" y1="1224.9" x2="-688.22" y2="1224.9" xlink:href="#Degradado_sin_nombre_43"/><linearGradient id="Degradado_sin_nombre_43-10" x1="-689.22" y1="1225.65" x2="-688.22" y2="1225.65" xlink:href="#Degradado_sin_nombre_43"/></defs><g id="Capa_2" data-name="Capa 2"><g id="svg2"><g id="g950"><g id="g952"><g id="g958"><g id="g960"><path id="path972" class="cls-1" d="M.61,8c0,4.17,3,6.67,7.82,8.39h0C12.43,18,14,19.55,14,22.31h0c0,3-2.28,5.05-6.19,5.05h0A13.45,13.45,0,0,1,1,25.43H1L0,28.64a15.33,15.33,0,0,0,7.55,1.89h0c7,0,10.37-4,10.37-8.52h0c0-4.35-2.55-6.77-7.55-8.7h0C6.28,11.73,4.48,10.37,4.48,7.6h0c0-2,1.54-4.44,5.58-4.44h0a11.75,11.75,0,0,1,5.62,1.41h0l1.05-3.12A13.37,13.37,0,0,0,10.19,0h0C4.44,0,.61,3.43.61,8"/></g></g></g></g><g id="g974"><g id="g976"><g id="g982"><g id="g984"><path id="path996" class="cls-2" d="M41.29.48V12.87H27V.48H23.14V30.09H27V16.21H41.29V30.09h3.86V.48Z"/></g></g></g></g><g id="g998"><g id="g1000"><g id="g1006"><g id="g1008"><path id="path1020" class="cls-3" d="M50,15.55c0,9,5.49,15,13.31,15h0c7.56,0,13.75-5.4,13.75-15.59h0c0-8.79-5.23-15-13.31-15h0C55.86,0,50,6.15,50,15.55m4.09-.09c0-6.5,3.16-12.34,9.48-12.34h0C70,3.12,73,9.27,73,15.15h0c0,6.73-3.43,12.3-9.49,12.3h0c-6,0-9.44-5.66-9.44-12"/></g></g></g></g><g id="g1022"><g id="g1024"><g id="g1030"><g id="g1032"><path id="path1044" class="cls-4" d="M82,.83V30.09h3.82V18.23a13.12,13.12,0,0,0,3.07.26h0c3.74,0,7-1.1,9-3.25h0a8.67,8.67,0,0,0,2.29-6.32h0a8,8,0,0,0-2.59-6.2h0C95.92,1.14,93.15.26,89.37.26h0A45.07,45.07,0,0,0,82,.83m3.82,14.28V3.6a16.33,16.33,0,0,1,3.6-.31h0c4.22,0,7,1.89,7,5.8h0c0,4.09-2.81,6.33-7.43,6.33h0a12.76,12.76,0,0,1-3.16-.31"/></g></g></g></g><g id="g1046"><g id="g1048"><g id="g1054"><g id="g1056"><path id="path1068" class="cls-5" d="M137.42.48,132.15,14.8c-1.31,3.74-2.37,7-3.12,10h-.13c-.74-3.07-1.75-6.32-3-10h0L120.86.48H116l-2.07,29.61h3.65l.79-12.7c.26-4.43.48-9.4.57-13.08H119c.83,3.51,2,7.33,3.43,11.5h0l4.78,14.1h2.9l5.23-14.36c1.49-4.08,2.72-7.78,3.73-11.24h.14c0,3.68.21,8.65.44,12.78h0l.74,13h3.74L142.3.48Z"/></g></g></g></g><g id="g1070"><g id="g1072"><g id="g1078"><g id="g1080"><path id="path1092" class="cls-6" d="M157.41.48,147.35,30.09h4l3.07-9.31h10.5L168,30.09h4.09L162,.48Zm.66,8.74c.56-1.8,1.05-3.6,1.49-5.35h.09c.43,1.71.87,3.47,1.53,5.4h0l2.9,8.52h-8.92Z"/></g></g></g></g><g id="g1094"><g id="g1096"><g id="g1102"><g id="g1104"><path id="path1116" class="cls-7" d="M175.59,8c0,4.17,3,6.67,7.82,8.39h0c4,1.53,5.57,3.12,5.57,5.88h0c0,3-2.28,5.05-6.19,5.05h0a13.45,13.45,0,0,1-6.85-1.93h0l-1,3.21a15.35,15.35,0,0,0,7.56,1.89h0c7,0,10.36-4,10.36-8.52h0c0-4.35-2.54-6.77-7.55-8.7h0c-4.09-1.58-5.89-2.94-5.89-5.71h0c0-2,1.54-4.44,5.58-4.44h0a11.71,11.71,0,0,1,5.62,1.41h0l1.06-3.12A13.45,13.45,0,0,0,185.16,0h0c-5.75,0-9.57,3.43-9.57,8"/></g></g></g></g><g id="g1118"><g id="g1120"><g id="g1126"><g id="g1128"><path id="path1140" class="cls-8" d="M194.73.48V3.73h9V30.09h3.86V3.73h9.05V.48Z"/></g></g></g></g><g id="g1142"><g id="g1144"><g id="g1150"><g id="g1152"><path id="path1164" class="cls-9" d="M219.94.48V30.09h16.65V26.88H223.77V16.21h11.5V13.05h-11.5V3.69h12.16V.48Z"/></g></g></g></g><g id="g1166"><g id="g1168"><g id="g1174"><g id="g1176"><path id="path1188" class="cls-10" d="M241.55.88V30.09h3.82V17.26H249c3.48.13,5.06,1.67,5.93,5.76h0a39.09,39.09,0,0,0,2,7.07h3.95c-.61-1.14-1.31-4-2.28-8.13h0c-.7-3.07-2.06-5.18-4.35-6h0v-.13a7.78,7.78,0,0,0,5.58-7.56h0a7.36,7.36,0,0,0-2.33-5.62h0C255.61,1,253,.26,248.89.26h0a39.36,39.36,0,0,0-7.34.62m3.82,2.68a15.61,15.61,0,0,1,3.78-.35h0c4,0,6.81,1.71,6.81,5.53h0c0,3.38-2.59,5.62-6.68,5.62h-3.91Z"/></g></g></g></g><g id="text1242" class="cls-11"><g class="cls-11"><path class="cls-12" d="M5.52,58.47a6.47,6.47,0,0,0,3.93,1.2c2.6,0,4.12-1.32,4.12-3.15s-.83-2.74-3.62-3.47c-3.55-.94-4.39-2.22-4.39-3.95,0-2.07,1.87-3.68,4.7-3.68a6.5,6.5,0,0,1,3.41.78l-.36.71a5.63,5.63,0,0,0-3.09-.82c-3,0-3.82,1.73-3.82,2.91,0,1.53.91,2.48,3.57,3.19,2.85.75,4.43,1.71,4.43,4.21,0,1.87-1.4,4-5.12,4A7.74,7.74,0,0,1,5.1,59.2Z"/></g><g class="cls-11"><path class="cls-12" d="M18.87,45.71v8.43c0,4,2.08,5.51,4.6,5.51,2.8,0,4.86-1.67,4.86-5.51V45.71h.83v8.35c0,4.59-2.66,6.3-5.73,6.3-2.81,0-5.41-1.56-5.41-6.2V45.71Z"/></g><g class="cls-11"><path class="cls-12" d="M54.14,59.53a10.5,10.5,0,0,1-4.39.83c-3.68,0-7.4-2.29-7.4-7.42,0-3.78,2.64-7.48,8-7.48a9,9,0,0,1,3.76.69l-.32.72a8,8,0,0,0-3.39-.72c-4.64,0-7.18,2.93-7.18,6.92,0,3.67,2.44,6.56,6.91,6.56a8.59,8.59,0,0,0,3.74-.77Z"/></g><g class="cls-11"><path class="cls-12" d="M59,54.94l-2,5.16h-.83l5.75-14.39h.69L68.28,60.1h-.83l-2.08-5.16Zm6.1-.74L63,49a20.23,20.23,0,0,1-.78-2.3h-.06A15,15,0,0,1,61.39,49L59.3,54.2Z"/></g><g class="cls-11"><path class="cls-12" d="M74.15,46.42h-5.3v-.71H80.27v.71H75V60.1h-.84Z"/></g><g class="cls-11"><path class="cls-12" d="M84,54.94,82,60.1h-.84l5.75-14.39h.7L93.32,60.1h-.84l-2.07-5.16Zm6.1-.74L88,49a20,20,0,0,1-.77-2.3H87.2A16.17,16.17,0,0,1,86.43,49l-2.1,5.24Zm-.53-11.66L86.71,45H86l2.09-2.42Z"/></g><g class="cls-11"><path class="cls-12" d="M97.77,45.71h.83v13.7h7.05v.69H97.77Z"/></g><g class="cls-11"><path class="cls-12" d="M121.61,52.72c0,5-3.36,7.64-6.75,7.64-3.72,0-6.59-3-6.59-7.27,0-4.58,3-7.63,6.75-7.63S121.61,48.51,121.61,52.72Zm-12.5.35c0,3.43,2.15,6.6,5.81,6.6s5.85-3,5.85-6.87c0-3.17-1.87-6.67-5.81-6.67S109.11,49.49,109.11,53.07Z"/></g><g class="cls-11"><path class="cls-12" d="M137.48,59.39a12.23,12.23,0,0,1-4.64.85,7.73,7.73,0,0,1-5.54-2,7.39,7.39,0,0,1-2.08-5.37c0-3.39,2.48-7.31,8.13-7.31a8.83,8.83,0,0,1,3.66.71l-.3.67a7.86,7.86,0,0,0-3.4-.67c-4.71,0-7.25,3-7.25,6.64,0,3.88,2.58,6.63,7,6.63a8.19,8.19,0,0,0,3.6-.63V53.8h-3.74v-.69h4.57Z"/></g><g class="cls-11"><path class="cls-12" d="M154.83,52.72c0,5-3.35,7.64-6.74,7.64-3.72,0-6.59-3-6.59-7.27,0-4.58,3-7.63,6.75-7.63S154.83,48.51,154.83,52.72Zm-12.49.35c0,3.43,2.15,6.6,5.81,6.6s5.85-3,5.85-6.87c0-3.17-1.87-6.67-5.81-6.67S142.34,49.49,142.34,53.07Z"/></g><g class="cls-11"><path class="cls-12" d="M170.52,60.1l-5.18-14.39h.87l2.85,8c.79,2.23,1.42,4,1.87,5.44h0c.47-1.52,1.22-3.29,2.07-5.42l3.21-8.07h.92L171.25,60.1Z"/></g><g class="cls-11"><path class="cls-12" d="M181.66,45.71V60.1h-.83V45.71Z"/></g><g class="cls-11"><path class="cls-12" d="M189.52,45.91a21.8,21.8,0,0,1,3.64-.32c2.2,0,3.54.44,4.47,1.28a3.44,3.44,0,0,1,1.1,2.48c0,1.89-1.26,3.21-3.27,3.76v0a3.88,3.88,0,0,1,2.56,3,15.23,15.23,0,0,0,1.26,4h-.94a22.84,22.84,0,0,1-1-3.48,3.72,3.72,0,0,0-3.84-3.21h-3.15V60.1h-.84Zm.84,6.81h3.15c2.66,0,4.39-1.28,4.39-3.21,0-2.36-2.18-3.21-4.8-3.21a14.35,14.35,0,0,0-2.74.22Z"/></g><g class="cls-11"><path class="cls-12" d="M206.47,46.42h-5.3v-.71h11.42v.71h-5.28V60.1h-.84Z"/></g><g class="cls-11"><path class="cls-12" d="M216.74,45.71v8.43c0,4,2.07,5.51,4.59,5.51,2.8,0,4.86-1.67,4.86-5.51V45.71H227v8.35c0,4.59-2.66,6.3-5.73,6.3-2.81,0-5.41-1.56-5.41-6.2V45.71Z"/></g><g class="cls-11"><path class="cls-12" d="M233.85,54.94l-2,5.16H231l5.75-14.39h.69l5.74,14.39h-.84l-2.07-5.16Zm6.09-.74L237.89,49a20,20,0,0,1-.77-2.3h-.06a16.17,16.17,0,0,1-.77,2.24l-2.1,5.24Z"/></g><g class="cls-11"><path class="cls-12" d="M247.12,45.71H248v13.7H255v.69h-7.89Z"/></g></g></g></g></svg>