<svg xmlns="http://www.w3.org/2000/svg" xmlns:xlink="http://www.w3.org/1999/xlink" viewBox="0 0 113.16 154.33"><defs><style>.cls-1{fill:none;}.cls-2{clip-path:url(#clip-path);}.cls-3{opacity:0.3;}.cls-4{fill:#9a2287;}.cls-5{fill:url(#Degradado_sin_nombre_11);}.cls-6{fill:url(#Degradado_sin_nombre);}.cls-7{fill:url(#Degradado_sin_nombre-2);}.cls-8{fill:url(#Degradado_sin_nombre_14);}.cls-9{fill:url(#Degradado_sin_nombre_14-2);}.cls-10{fill:url(#Degradado_sin_nombre_14-3);}.cls-11{clip-path:url(#clip-path-2);}.cls-12{clip-path:url(#clip-path-3);}.cls-13{clip-path:url(#clip-path-4);}.cls-14{fill:url(#Degradado_sin_nombre_42);}.cls-15{clip-path:url(#clip-path-5);}.cls-16{fill:#3c1243;}.cls-17{fill:url(#Degradado_sin_nombre_11-2);}</style><clipPath id="clip-path"><rect class="cls-1" x="33.36" y="74" width="55.2" height="54.3"/></clipPath><linearGradient id="Degradado_sin_nombre_11" x1="-832.54" y1="-196.96" x2="-831.54" y2="-196.96" gradientTransform="translate(-7604.4 32383.12) rotate(90) scale(38.9)" gradientUnits="userSpaceOnUse"><stop offset="0" stop-color="#00c6db"/><stop offset="1" stop-color="#9a2287"/></linearGradient><linearGradient id="Degradado_sin_nombre" x1="-614.22" y1="-268.22" x2="-613.22" y2="-268.22" gradientTransform="translate(-1808.36 4305.42) rotate(90) scale(6.95)" gradientUnits="userSpaceOnUse"><stop offset="0" stop-color="#ffdc81"/><stop offset="0.67" stop-color="#ff5a6e"/><stop offset="0.75" stop-color="#ff5a6e"/><stop offset="1" stop-color="#ff4ea6"/></linearGradient><linearGradient id="Degradado_sin_nombre-2" x1="-872.82" y1="-193.57" x2="-871.82" y2="-193.57" gradientTransform="matrix(-90.53, 103.84, -103.84, -90.53, -99015.08, 73166.03)" xlink:href="#Degradado_sin_nombre"/><linearGradient id="Degradado_sin_nombre_14" x1="-915.08" y1="-245.36" x2="-914.08" y2="-245.36" gradientTransform="translate(-22693.98 -10832.3) rotate(-169.36) scale(26.68)" gradientUnits="userSpaceOnUse"><stop offset="0" stop-color="#f2f2f2"/><stop offset="0.6" stop-color="#f2f2f2"/><stop offset="1" stop-color="#00c6db"/></linearGradient><linearGradient id="Degradado_sin_nombre_14-2" x1="-845.7" y1="-192.92" x2="-844.7" y2="-192.92" gradientTransform="matrix(-0.35, 53.67, -53.67, -0.35, -10601.73, 45397.76)" xlink:href="#Degradado_sin_nombre_14"/><linearGradient id="Degradado_sin_nombre_14-3" x1="-813.26" y1="-276.66" x2="-812.26" y2="-276.66" gradientTransform="translate(-11794.67 8182.7) rotate(126.87) scale(16.72)" xlink:href="#Degradado_sin_nombre_14"/><clipPath id="clip-path-2"><rect class="cls-1" x="33.36" y="74" width="33.4" height="38"/></clipPath><clipPath id="clip-path-3"><rect class="cls-1" x="33.36" y="74" width="48.9" height="62.7"/></clipPath><clipPath id="clip-path-4"><polygon class="cls-1" points="82.26 95.9 33.36 74 35.46 134.9 49.36 118.8 60.56 136.7 74.76 124.6 63.86 106.5 82.26 95.9"/></clipPath><linearGradient id="Degradado_sin_nombre_42" x1="-838.02" y1="-195.17" x2="-837.02" y2="-195.17" gradientTransform="translate(-8523.18 36933.32) rotate(90) scale(43.97)" gradientUnits="userSpaceOnUse"><stop offset="0" stop-color="#3c1243"/><stop offset="0.67" stop-color="#3c1243"/><stop offset="1" stop-color="#3c1243"/></linearGradient><clipPath id="clip-path-5"><rect class="cls-1" x="0.06" y="144.3" width="113" height="10"/></clipPath><linearGradient id="Degradado_sin_nombre_11-2" x1="-837.31" y1="-195.4" x2="-836.31" y2="-195.4" gradientTransform="translate(-8392.25 36212.3) rotate(90) scale(43.24)" xlink:href="#Degradado_sin_nombre_11"/></defs><g id="Capa_2" data-name="Capa 2"><g id="svg2"><g id="g276"><g id="g282"><g id="g296"><g class="cls-2"><g id="g294" class="cls-3"><g id="g292"><path id="path290" class="cls-4" d="M33.32,74l19.6,54.3,9.3-14.4,2.8,2.7,2.5-8.6,8.4-2.3-2.8-2.8,15.4-9.3Z"/></g></g></g></g></g></g><g id="g62"><g id="g64"><g id="g70"><g id="g72"><path id="path80" class="cls-5" d="M36.66,19.9V37.7a2.22,2.22,0,0,0,2.2,2.2h0a2.22,2.22,0,0,0,2.2-2.2h0V19.9A15.51,15.51,0,0,1,56.56,4.4h0a15.51,15.51,0,0,1,15.5,15.5h0V37.7a2.22,2.22,0,0,0,2.2,2.2h0a2.22,2.22,0,0,0,2.2-2.2h0V19.9A19.89,19.89,0,0,0,56.56,0h0a19.82,19.82,0,0,0-19.9,19.9"/></g></g></g></g><g id="g82"><g id="g84"><g id="g90"><g id="g92"><path id="path104" class="cls-6" d="M22.26,35.2c-2.9,0-5.3,1.1-5.7,2.7h0l-2.5,8h85l-2.5-8c-.4-1.5-2.8-2.7-5.7-2.7H22.26Z"/></g></g></g></g><g id="g106"><g id="g108"><g id="g114"><g id="g116"><path id="path128" class="cls-7" d="M56.56,41.5H19.86a6.23,6.23,0,0,0-6.1,5.5h0L.06,147.1a6.25,6.25,0,0,0,6.1,7.2H107a6.3,6.3,0,0,0,6.1-7.2h0L99.36,47a6.24,6.24,0,0,0-6.1-5.5H56.56Z"/></g></g></g></g><g id="g252"><g id="g254"><g id="g260"><g id="g262"><path id="path272" class="cls-8" d="M52.86,128.2l9.4-14.3,16.4,15.9L89.36,119l-16.2-16.3,15.4-9.3L33.36,73.9Z"/></g></g></g></g><g id="g298"><g id="g300"><g id="g306"><g id="g308"><path id="path318" class="cls-9" d="M52.86,128.2l13.8-21.3L33.26,74Z"/></g></g></g></g><g id="g344"><g id="g346"><g id="g352"><g id="g354"><path id="path364" class="cls-10" d="M66.76,106.9l21.8-13.4L33.36,74Z"/></g></g></g></g><g id="g322"><g id="g328"><g id="g342"><g class="cls-11"><g id="g340" class="cls-3"><g id="g338"><path id="path336" class="cls-4" d="M33.32,74l30.1,38,3.3-5.1Z"/></g></g></g></g></g></g><g id="g184"><g id="g190"><g id="g250"><g class="cls-12"><g id="g248" class="cls-3"><g id="g246"><g class="cls-13"><g id="g244"><g id="g242"><g id="g240"><g id="g238"><path id="path236" class="cls-14" d="M82.26,95.9,33.36,74l2.1,60.9,14-16.2,11.2,17.9,14.1-12.1L64,106.4Z"/></g></g></g></g></g></g></g></g></g></g></g><g id="g132"><g id="g138"><g id="g152"><g class="cls-15"><g id="g150" class="cls-3"><g id="g148"><path id="path146" class="cls-4" d="M112.61,144.33a6.19,6.19,0,0,1-5.7,4H6.21a6.19,6.19,0,0,1-5.7-4l-.4,2.8a6.25,6.25,0,0,0,6.1,7.2H107a6.3,6.3,0,0,0,6.1-7.2Z"/></g></g></g></g></g><g id="g154"><path id="path156" class="cls-16" d="M42,52.2a5,5,0,1,1-5-5,5.08,5.08,0,0,1,5,5"/></g><g id="g158"><path id="path160" class="cls-16" d="M81.21,52.2a5,5,0,1,1-5-5,5.08,5.08,0,0,1,5,5"/></g></g><g id="g162"><g id="g164"><g id="g170"><g id="g172"><path id="path180" class="cls-17" d="M34.46,30V49.8A2.48,2.48,0,0,0,37,52.3h0a2.48,2.48,0,0,0,2.5-2.5h0V30a17.2,17.2,0,0,1,17.2-17.2h0A17.2,17.2,0,0,1,73.86,30h0V49.8a2.48,2.48,0,0,0,2.5,2.5h0a2.48,2.48,0,0,0,2.5-2.5h0V30A22.11,22.11,0,0,0,56.76,7.9h0A22.09,22.09,0,0,0,34.46,30"/></g></g></g></g></g></g></svg>