<svg xmlns="http://www.w3.org/2000/svg" xmlns:xlink="http://www.w3.org/1999/xlink" viewBox="0 0 181 208.1"><defs><style>.cls-1{fill:url(#Degradado_sin_nombre_45);}.cls-2{fill:none;}.cls-3{clip-path:url(#clip-path);}.cls-4{opacity:0.3;}.cls-5{fill:#9a2287;}.cls-6{fill:url(#Degradado_sin_nombre_5);}.cls-7{fill:url(#Degradado_sin_nombre_4);}.cls-8{fill:url(#Degradado_sin_nombre_4-2);}.cls-9{fill:url(#Degradado_sin_nombre_9);}.cls-10{fill:url(#Degradado_sin_nombre_9-2);}.cls-11{fill:url(#Degradado_sin_nombre_9-3);}.cls-12{fill:url(#Degradado_sin_nombre_33);}.cls-13{fill:url(#Degradado_sin_nombre_33-2);}.cls-14{fill:url(#Degradado_sin_nombre_33-3);}.cls-15{fill:url(#Degradado_sin_nombre_33-4);}.cls-16{fill:url(#Degradado_sin_nombre_33-5);}.cls-17{fill:url(#Degradado_sin_nombre_33-6);}.cls-18{fill:url(#Degradado_sin_nombre_33-7);}.cls-19{fill:url(#Degradado_sin_nombre_33-8);}.cls-20{fill:url(#Degradado_sin_nombre_33-9);}.cls-21{fill:url(#Degradado_sin_nombre_33-10);}.cls-22{fill:url(#Degradado_sin_nombre_33-11);}.cls-23{fill:url(#Degradado_sin_nombre_33-12);}.cls-24{fill:url(#Degradado_sin_nombre_33-13);}.cls-25{fill:url(#Degradado_sin_nombre_33-14);}.cls-26{fill:url(#Degradado_sin_nombre_33-15);}.cls-27{fill:url(#Degradado_sin_nombre_33-16);}.cls-28{fill:url(#Degradado_sin_nombre_33-17);}.cls-29{fill:url(#Degradado_sin_nombre_33-18);}.cls-30{fill:url(#Degradado_sin_nombre_33-19);}.cls-31{fill:url(#Degradado_sin_nombre_33-20);}.cls-32{fill:url(#Degradado_sin_nombre_33-21);}.cls-33{fill:url(#Degradado_sin_nombre_33-22);}.cls-34{fill:url(#Degradado_sin_nombre_33-23);}.cls-35{fill:url(#Degradado_sin_nombre_33-24);}.cls-36{clip-path:url(#clip-path-2);}.cls-37{clip-path:url(#clip-path-3);}.cls-38{clip-path:url(#clip-path-4);}.cls-39{mask:url(#mask);}.cls-40{fill:url(#Degradado_sin_nombre_6);}.cls-41{clip-path:url(#clip-path-5);}.cls-42{fill:#3c1243;}.cls-43{fill:url(#Degradado_sin_nombre_5-2);}</style><linearGradient id="Degradado_sin_nombre_45" x1="-1773.89" y1="1453.88" x2="213.54" y2="1453.88" gradientTransform="translate(-48184.57 -25890.02) rotate(-90) scale(32.97)" gradientUnits="userSpaceOnUse"><stop offset="0" stop-color="#fff"/><stop offset="0.67" stop-color="#fff" stop-opacity="0"/><stop offset="1" stop-color="#fff" stop-opacity="0"/></linearGradient><clipPath id="clip-path"><rect class="cls-2" x="67.25" y="127.73" width="55.19" height="54.26"/></clipPath><linearGradient id="Degradado_sin_nombre_5" x1="-735.61" y1="1459.12" x2="-734.61" y2="1459.12" gradientTransform="matrix(0, 38.9, 38.9, 0, -56663.79, 28666.85)" gradientUnits="userSpaceOnUse"><stop offset="0" stop-color="#00c6db"/><stop offset="1" stop-color="#9a2287"/></linearGradient><linearGradient id="Degradado_sin_nombre_4" x1="-624.35" y1="1520.18" x2="-623.35" y2="1520.18" gradientTransform="matrix(0, 6.95, 6.95, 0, -10479.19, 4429.6)" gradientUnits="userSpaceOnUse"><stop offset="0" stop-color="#ffdc81"/><stop offset="0.67" stop-color="#ff5a6e"/><stop offset="0.75" stop-color="#ff5a6e"/><stop offset="1" stop-color="#ff4ea6"/></linearGradient><linearGradient id="Degradado_sin_nombre_4-2" x1="-757.15" y1="1453.15" x2="-756.15" y2="1453.15" gradientTransform="matrix(-90.53, 103.84, 103.84, 90.53, -219308.88, -52823.84)" xlink:href="#Degradado_sin_nombre_4"/><linearGradient id="Degradado_sin_nombre_9" x1="-785.4" y1="1476.95" x2="-784.4" y2="1476.95" gradientTransform="matrix(-26.22, -4.93, -4.93, 26.22, -13191.47, -42431.83)" gradientUnits="userSpaceOnUse"><stop offset="0" stop-color="#f2f2f2"/><stop offset="0.6" stop-color="#f2f2f2"/><stop offset="1" stop-color="#00c6db"/></linearGradient><linearGradient id="Degradado_sin_nombre_9-2" x1="-742.35" y1="1455.57" x2="-741.35" y2="1455.57" gradientTransform="matrix(-0.35, 53.67, 53.67, 0.35, -78300.69, 39460.17)" xlink:href="#Degradado_sin_nombre_9"/><linearGradient id="Degradado_sin_nombre_9-3" x1="-733.31" y1="1504.37" x2="-732.31" y2="1504.37" gradientTransform="matrix(-10.03, 13.37, 13.37, 10.03, -27378.26, -5147.4)" xlink:href="#Degradado_sin_nombre_9"/><linearGradient id="Degradado_sin_nombre_33" x1="-749.02" y1="1451.76" x2="-748.02" y2="1451.76" gradientTransform="matrix(0, 87.14, 87.14, 0, -126416.14, 65300.21)" gradientUnits="userSpaceOnUse"><stop offset="0" stop-color="#ffdc81"/><stop offset="1" stop-color="#ff5a6e"/></linearGradient><linearGradient id="Degradado_sin_nombre_33-2" x1="-797.95" y1="1424.91" x2="-796.95" y2="1424.91" gradientTransform="matrix(0, -24.71, -24.71, 0, 35306.64, -19697.12)" xlink:href="#Degradado_sin_nombre_33"/><linearGradient id="Degradado_sin_nombre_33-3" x1="-823.12" y1="1411.09" x2="-822.12" y2="1411.09" gradientTransform="matrix(0, -14.89, -14.89, 0, 21082.18, -12227.48)" xlink:href="#Degradado_sin_nombre_33"/><linearGradient id="Degradado_sin_nombre_33-4" x1="-799.98" y1="1423.79" x2="-798.98" y2="1423.79" gradientTransform="matrix(0, -23.47, -23.47, 0, 33473.05, -18743.72)" xlink:href="#Degradado_sin_nombre_33"/><linearGradient id="Degradado_sin_nombre_33-5" x1="-829.24" y1="1407.73" x2="-828.24" y2="1407.73" gradientTransform="matrix(0, -13.57, -13.57, 0, 19159.41, -11221.62)" xlink:href="#Degradado_sin_nombre_33"/><linearGradient id="Degradado_sin_nombre_33-6" x1="-801.71" y1="1458.02" x2="-800.71" y2="1458.02" gradientTransform="matrix(-17.42, -17.42, -17.42, 17.42, 11480.73, -39326.01)" xlink:href="#Degradado_sin_nombre_33"/><linearGradient id="Degradado_sin_nombre_33-7" x1="-828.56" y1="1465.84" x2="-827.56" y2="1465.84" gradientTransform="matrix(-10.61, -10.61, -10.61, 10.61, 6802.64, -24305.89)" xlink:href="#Degradado_sin_nombre_33"/><linearGradient id="Degradado_sin_nombre_33-8" x1="-802.8" y1="1458.34" x2="-801.8" y2="1458.34" gradientTransform="matrix(-16.98, -16.98, -16.98, 16.98, 11158.4, -38326.81)" xlink:href="#Degradado_sin_nombre_33"/><linearGradient id="Degradado_sin_nombre_33-9" x1="-833.43" y1="1467.26" x2="-832.43" y2="1467.26" gradientTransform="matrix(-9.91, -9.91, -9.91, 9.91, 6307.27, -22734.03)" xlink:href="#Degradado_sin_nombre_33"/><linearGradient id="Degradado_sin_nombre_33-10" x1="-809.03" y1="1460.16" x2="-808.03" y2="1460.16" gradientTransform="matrix(-14.83, -14.83, -14.83, 14.83, 9673.02, -33559.9)" xlink:href="#Degradado_sin_nombre_33"/><linearGradient id="Degradado_sin_nombre_33-11" x1="-847.14" y1="1471.26" x2="-846.14" y2="1471.26" gradientTransform="matrix(-8.36, -8.36, -8.36, 8.36, 5233.84, -19274.75)" xlink:href="#Degradado_sin_nombre_33"/><linearGradient id="Degradado_sin_nombre_33-12" x1="-824.79" y1="1464.75" x2="-823.79" y2="1464.75" gradientTransform="matrix(-11.23, -11.23, -11.23, 11.23, 7203.67, -25599.94)" xlink:href="#Degradado_sin_nombre_33"/><linearGradient id="Degradado_sin_nombre_33-13" x1="-878.81" y1="1480.48" x2="-877.81" y2="1480.48" gradientTransform="matrix(-6.13, -6.13, -6.13, 6.13, 3711.92, -14345.59)" xlink:href="#Degradado_sin_nombre_33"/><linearGradient id="Degradado_sin_nombre_33-14" x1="-823.12" y1="1411.09" x2="-822.12" y2="1411.09" gradientTransform="matrix(0, -14.89, -14.89, 0, 21108.46, -12227.52)" xlink:href="#Degradado_sin_nombre_33"/><linearGradient id="Degradado_sin_nombre_33-15" x1="-799.98" y1="1423.79" x2="-798.98" y2="1423.79" gradientTransform="matrix(0, -23.47, -23.47, 0, 33527.92, -18743.7)" xlink:href="#Degradado_sin_nombre_33"/><linearGradient id="Degradado_sin_nombre_33-16" x1="-829.24" y1="1407.73" x2="-828.24" y2="1407.73" gradientTransform="matrix(0, -13.57, -13.57, 0, 19234.84, -11221.61)" xlink:href="#Degradado_sin_nombre_33"/><linearGradient id="Degradado_sin_nombre_33-17" x1="-729.97" y1="1391.42" x2="-728.97" y2="1391.42" gradientTransform="matrix(17.32, 0, 0, -17.32, 12773.12, 24123.1)" xlink:href="#Degradado_sin_nombre_33"/><linearGradient id="Degradado_sin_nombre_33-18" x1="-718.37" y1="1370.27" x2="-717.37" y2="1370.27" gradientTransform="matrix(12.47, 0, 0, -12.47, 9098.32, 17127.24)" xlink:href="#Degradado_sin_nombre_33"/><linearGradient id="Degradado_sin_nombre_33-19" x1="-736.27" y1="1402.89" x2="-735.27" y2="1402.89" gradientTransform="matrix(21.94, 0, 0, -21.94, 16302.34, 30830.23)" xlink:href="#Degradado_sin_nombre_33"/><linearGradient id="Degradado_sin_nombre_33-20" x1="-723.9" y1="1380.35" x2="-722.9" y2="1380.35" gradientTransform="matrix(14.39, 0, 0, -14.39, 10568.83, 19924.94)" xlink:href="#Degradado_sin_nombre_33"/><linearGradient id="Degradado_sin_nombre_33-21" x1="-738.64" y1="1407.22" x2="-737.64" y2="1407.22" gradientTransform="matrix(24.4, 0, 0, -24.4, 18180.31, 34414.07)" xlink:href="#Degradado_sin_nombre_33"/><linearGradient id="Degradado_sin_nombre_33-22" x1="-725.49" y1="1383.25" x2="-724.49" y2="1383.25" gradientTransform="matrix(15.05, 0, 0, -15.05, 11079.65, 20914.72)" xlink:href="#Degradado_sin_nombre_33"/><linearGradient id="Degradado_sin_nombre_33-23" x1="-738.64" y1="1407.22" x2="-737.64" y2="1407.22" gradientTransform="matrix(24.4, 0, 0, -24.4, 18180.29, 34441.9)" xlink:href="#Degradado_sin_nombre_33"/><linearGradient id="Degradado_sin_nombre_33-24" x1="-723.9" y1="1380.35" x2="-722.9" y2="1380.35" gradientTransform="matrix(14.39, 0, 0, -14.39, 10568.89, 19976.66)" xlink:href="#Degradado_sin_nombre_33"/><clipPath id="clip-path-2"><rect class="cls-2" x="67.25" y="127.73" width="33.39" height="38.05"/></clipPath><clipPath id="clip-path-3"><rect class="cls-2" x="67.25" y="127.73" width="48.92" height="62.69"/></clipPath><clipPath id="clip-path-4"><polygon class="cls-2" points="116.17 149.59 67.25 127.73 69.33 188.67 83.29 172.5 94.52 190.42 108.65 178.32 97.82 160.2 116.17 149.59"/></clipPath><mask id="mask" x="-33010.83" y="-32931.36" width="65535" height="65535" maskUnits="userSpaceOnUse"><g id="mask214"><g id="g224"><g id="g222"><g id="g220"><g id="g218"><path id="path216" class="cls-1" d="M-33010.83,32603.64h65535v-65535h-65535Z"/></g></g></g></g></g></mask><linearGradient id="Degradado_sin_nombre_6" x1="-738.41" y1="1457.58" x2="-737.41" y2="1457.58" gradientTransform="matrix(0, 43.97, 43.97, 0, -63992.81, 32607.53)" gradientUnits="userSpaceOnUse"><stop offset="0" stop-color="#3c1243"/><stop offset="0.67" stop-color="#3c1243"/><stop offset="1" stop-color="#3c1243"/></linearGradient><clipPath id="clip-path-5"><rect class="cls-2" x="33.99" y="198.07" width="113.02" height="10.03"/></clipPath><linearGradient id="Degradado_sin_nombre_5-2" x1="-738.05" y1="1457.78" x2="-737.05" y2="1457.78" gradientTransform="matrix(0, 43.24, 43.24, 0, -62941.55, 31974.01)" xlink:href="#Degradado_sin_nombre_5"/></defs><g id="Capa_2" data-name="Capa 2"><g id="svg2"><g id="g276"><g id="g282"><g id="g296"><g class="cls-3"><g id="g294" class="cls-4"><g id="g292"><path id="path290" class="cls-5" d="M67.25,127.73,86.82,182l9.32-14.39,2.78,2.71,2.47-8.63,8.42-2.35-2.8-2.81,15.43-9.32Z"/></g></g></g></g></g></g><g id="g62"><g id="g64"><g id="g70"><g id="g72"><path id="path80" class="cls-6" d="M70.58,73.59V91.38A2.22,2.22,0,0,0,72.8,93.6h0A2.23,2.23,0,0,0,75,91.38h0V73.59A15.5,15.5,0,0,1,90.5,58.11h0A15.5,15.5,0,0,1,106,73.59h0V91.38a2.23,2.23,0,0,0,2.22,2.22h0a2.23,2.23,0,0,0,2.23-2.22h0V73.59A20,20,0,0,0,90.5,53.67h0A20,20,0,0,0,70.58,73.59"/></g></g></g></g><g id="g82"><g id="g84"><g id="g90"><g id="g92"><path id="path104" class="cls-7" d="M56.21,89c-2.86,0-5.28,1.14-5.68,2.67h0l-2.55,8h85l-2.55-8c-.4-1.53-2.82-2.67-5.68-2.67H56.21Z"/></g></g></g></g><g id="g106"><g id="g108"><g id="g114"><g id="g116"><path id="path128" class="cls-8" d="M90.5,95.27H53.83a6.2,6.2,0,0,0-6.08,5.45h0L34.05,200.87a6.28,6.28,0,0,0,6.08,7.23H140.87a6.28,6.28,0,0,0,6.08-7.23h0L133.24,100.72a6.19,6.19,0,0,0-6.07-5.45H90.5Z"/></g></g></g></g><g id="g252"><g id="g254"><g id="g260"><g id="g262"><path id="path272" class="cls-9" d="M86.82,182l9.32-14.39,16.36,15.94,10.66-10.77L107,156.52l15.43-9.32-55.2-19.47Z"/></g></g></g></g><g id="g298"><g id="g300"><g id="g306"><g id="g308"><path id="path318" class="cls-10" d="M86.82,182l13.82-21.35-33.4-32.91Z"/></g></g></g></g><g id="g344"><g id="g346"><g id="g352"><g id="g354"><path id="path364" class="cls-11" d="M100.64,160.64l21.8-13.44-55.2-19.47Z"/></g></g></g></g><g id="g416"><g id="g418"><g id="g424"><g id="g426"><path id="path434" class="cls-12" d="M61.28,37.47A63.33,63.33,0,0,0,49,46.31h0l-1.4,1.28-.7.65-.64.7-2.55,2.82a32,32,0,0,0-2.35,3h0c-.73,1-1.54,2-2.21,3.09h0a62.33,62.33,0,0,0-9.82,28.39h0a61,61,0,0,0,4.84,29.53h0a1.4,1.4,0,0,0,1.83.74h0a1.4,1.4,0,0,0,.76-1.83h0a57.9,57.9,0,0,1-4.05-28.13h0A58.89,58.89,0,0,1,42.2,59.89h0a60.3,60.3,0,0,1,20.92-19h0A59.92,59.92,0,0,1,90.5,34.06h0a59.79,59.79,0,0,1,27.38,6.84h0a60.21,60.21,0,0,1,20.92,19h0a58.89,58.89,0,0,1,9.54,26.64h0a57.9,57.9,0,0,1-4.05,28.13h0a1.41,1.41,0,0,0,.74,1.82h0a1.4,1.4,0,0,0,1.85-.73h0a61,61,0,0,0,4.84-29.53h0a62.45,62.45,0,0,0-9.82-28.39h0a62.89,62.89,0,0,0-22.18-20.36h0a63.75,63.75,0,0,0-29.22-7.4h0a63.62,63.62,0,0,0-29.22,7.4"/></g></g></g></g><g id="g436"><g id="g438"><g id="g444"><g id="g446"><path id="path454" class="cls-13" d="M89.09,1.23a79.87,79.87,0,0,0-.59,10.36h0a81.63,81.63,0,0,0,.59,10.35h0a1.43,1.43,0,0,0,1.22,1.22h0a1.42,1.42,0,0,0,1.6-1.22h0a81.63,81.63,0,0,0,.59-10.35h0a79.87,79.87,0,0,0-.59-10.36h0A1.43,1.43,0,0,0,90.69,0H90.5a1.43,1.43,0,0,0-1.41,1.23"/></g></g></g></g><g id="g456"><g id="g458"><g id="g464"><g id="g466"><path id="path474" class="cls-14" d="M75.05,12.36a22.79,22.79,0,0,0,.38,5.55h0A23.22,23.22,0,0,0,77,23.25h0a1.45,1.45,0,0,0,1.22.85h0a1.45,1.45,0,0,0,1.55-1.34h0a23.21,23.21,0,0,0-.37-5.54h0a22.62,22.62,0,0,0-1.55-5.34h0A1.43,1.43,0,0,0,76.61,11H76.5a1.46,1.46,0,0,0-1.45,1.34"/></g></g></g></g><g id="g476"><g id="g478"><g id="g484"><g id="g486"><path id="path494" class="cls-15" d="M59.26,5.49a1.41,1.41,0,0,0-1.08,1.69h0a77.21,77.21,0,0,0,3,9.93h0a80,80,0,0,0,4.1,9.53h0a1.42,1.42,0,0,0,1.56.73h0a1.41,1.41,0,0,0,1.08-1.69h0a80.16,80.16,0,0,0-3-9.94h0a80.69,80.69,0,0,0-4.1-9.53h0a1.44,1.44,0,0,0-1.26-.76h0a1.54,1.54,0,0,0-.3,0"/></g></g></g></g><g id="g496"><g id="g498"><g id="g504"><g id="g506"><path id="path514" class="cls-16" d="M49.79,20.65a1.45,1.45,0,0,0-1,1.79h0A22.78,22.78,0,0,0,51,27.53h0A23.57,23.57,0,0,0,54.32,32h0a1.46,1.46,0,0,0,1.43.38h0a1.45,1.45,0,0,0,1-1.79h0a22.51,22.51,0,0,0-2.25-5.08h0A23.27,23.27,0,0,0,51.23,21h0a1.48,1.48,0,0,0-1-.43h0a1.9,1.9,0,0,0-.4,0"/></g></g></g></g><g id="g516"><g id="g518"><g id="g524"><g id="g526"><path id="path534" class="cls-17" d="M31.6,21.38a1.42,1.42,0,0,0-.44,2h0a78,78,0,0,0,6.2,8.31h0a80.52,80.52,0,0,0,7.11,7.56h0a1.43,1.43,0,0,0,1.72.15h0a1.42,1.42,0,0,0,.44-2h0a79.23,79.23,0,0,0-6.21-8.32h0a79.12,79.12,0,0,0-7.11-7.55h0a1.42,1.42,0,0,0-1-.37h0a1.39,1.39,0,0,0-.75.22"/></g></g></g></g><g id="g536"><g id="g538"><g id="g544"><g id="g546"><path id="path554" class="cls-18" d="M27.89,38.87a1.45,1.45,0,0,0-.33,2h0a22.83,22.83,0,0,0,3.85,4h0A23.33,23.33,0,0,0,36,48h0a1.45,1.45,0,0,0,1.47-.13h0a1.44,1.44,0,0,0,.33-2h0a22.89,22.89,0,0,0-3.85-4h0a22.83,22.83,0,0,0-4.61-3.1h0a1.56,1.56,0,0,0-.63-.14h0a1.48,1.48,0,0,0-.85.27"/></g></g></g></g><g id="g556"><g id="g558"><g id="g564"><g id="g566"><path id="path574" class="cls-19" d="M11,45.78a1.41,1.41,0,0,0,.26,2h0A79.35,79.35,0,0,0,20,53.46h0a81.18,81.18,0,0,0,9.27,4.67h0a1.43,1.43,0,0,0,1.66-.45h0a1.42,1.42,0,0,0-.26-2h0A80.32,80.32,0,0,0,22,50h0a79.58,79.58,0,0,0-9.27-4.67h0a1.39,1.39,0,0,0-.53-.1h0a1.42,1.42,0,0,0-1.13.55"/></g></g></g></g><g id="g576"><g id="g578"><g id="g584"><g id="g586"><path id="path594" class="cls-20" d="M13.54,63.48a1.46,1.46,0,0,0,.38,2h0a22.61,22.61,0,0,0,5,2.44h0a22.72,22.72,0,0,0,5.4,1.34h0a1.44,1.44,0,0,0,1.34-.63h0a1.46,1.46,0,0,0-.38-2h0a23.77,23.77,0,0,0-5-2.44h0a22.84,22.84,0,0,0-5.4-1.34h-.14a1.45,1.45,0,0,0-1.2.63"/></g></g></g></g><g id="g596"><g id="g598"><g id="g604"><g id="g606"><path id="path614" class="cls-21" d="M.07,75.73A1.42,1.42,0,0,0,1,77.52H1A79,79,0,0,0,11.08,79.9h0a82.63,82.63,0,0,0,10.31,1.22h0a1.44,1.44,0,0,0,1.41-1h0a1.42,1.42,0,0,0-.92-1.78h0A80.49,80.49,0,0,0,11.78,76h0a80.41,80.41,0,0,0-10.3-1.21H1.42a1.41,1.41,0,0,0-1.35,1"/></g></g></g></g><g id="g616"><g id="g618"><g id="g624"><g id="g626"><path id="path634" class="cls-22" d="M9.52,90.47a1.44,1.44,0,0,0-1,1h0a1.45,1.45,0,0,0,1,1.77h0a22.54,22.54,0,0,0,5.52.59h0a23.07,23.07,0,0,0,5.53-.59h0a1.47,1.47,0,0,0,1.05-1h0a1.44,1.44,0,0,0-1.05-1.76h0a23.08,23.08,0,0,0-5.53-.6h0a23.05,23.05,0,0,0-5.52.6"/></g></g></g></g><g id="g636"><g id="g638"><g id="g644"><g id="g646"><path id="path654" class="cls-23" d="M21.39,102.63a80.79,80.79,0,0,0-10.31,1.22h0A79,79,0,0,0,1,106.23H1a1.43,1.43,0,0,0-1,1.41H0A1.42,1.42,0,0,0,1.48,109h0a78.68,78.68,0,0,0,10.3-1.22h0a78.73,78.73,0,0,0,10.1-2.38h0a1.41,1.41,0,0,0,1-1.41h0a1.42,1.42,0,0,0-1.41-1.36h-.06"/></g></g></g></g><g id="g656"><g id="g658"><g id="g664"><g id="g666"><path id="path674" class="cls-24" d="M24.31,114.47a23.19,23.19,0,0,0-5.4,1.33h0a23.1,23.1,0,0,0-5,2.45h0a1.47,1.47,0,0,0-.63,1.34h0a1.45,1.45,0,0,0,1.59,1.3h0a22.35,22.35,0,0,0,5.4-1.33h0a23.33,23.33,0,0,0,5-2.45h0a1.44,1.44,0,0,0,.62-1.34h0a1.44,1.44,0,0,0-1.44-1.31h-.14"/></g></g></g></g><g id="g676"><g id="g678"><g id="g684"><g id="g686"><path id="path694" class="cls-25" d="M103.18,11.88a22.62,22.62,0,0,0-1.55,5.34h0a23.21,23.21,0,0,0-.37,5.54h0a1.47,1.47,0,0,0,.85,1.22h0a1.45,1.45,0,0,0,1.92-.73h0a23.22,23.22,0,0,0,1.54-5.34h0a22.79,22.79,0,0,0,.38-5.55h0a1.46,1.46,0,0,0-.85-1.21h0a1.41,1.41,0,0,0-.6-.13h0a1.45,1.45,0,0,0-1.32.86"/></g></g></g></g><g id="g696"><g id="g698"><g id="g704"><g id="g706"><path id="path714" class="cls-26" d="M120.18,6.21a80.69,80.69,0,0,0-4.1,9.53h0a80.16,80.16,0,0,0-3,9.94h0a1.42,1.42,0,0,0,.72,1.56h0a1.42,1.42,0,0,0,1.92-.6h0a80,80,0,0,0,4.1-9.53h0a77.21,77.21,0,0,0,3-9.93h0a1.4,1.4,0,0,0-.72-1.56h0a1.44,1.44,0,0,0-.66-.17h0a1.43,1.43,0,0,0-1.26.76"/></g></g></g></g><g id="g716"><g id="g718"><g id="g724"><g id="g726"><path id="path734" class="cls-27" d="M129.77,21a23.27,23.27,0,0,0-3.27,4.5h0a22.51,22.51,0,0,0-2.25,5.08h0a1.45,1.45,0,0,0,.38,1.43h0a1.45,1.45,0,0,0,2.05,0h0A23.57,23.57,0,0,0,130,27.53h0a22.78,22.78,0,0,0,2.25-5.09h0a1.46,1.46,0,0,0-.38-1.43h0a1.49,1.49,0,0,0-1-.41h0a1.49,1.49,0,0,0-1,.43"/></g></g></g></g><g id="g736"><g id="g738"><g id="g744"><g id="g746"><path id="path754" class="cls-28" d="M147.69,21.53a79.12,79.12,0,0,0-7.11,7.55h0a80.65,80.65,0,0,0-6.21,8.32h0a1.42,1.42,0,0,0,.15,1.71h0a1.42,1.42,0,0,0,2,.1h0a80.52,80.52,0,0,0,7.11-7.56h0a78,78,0,0,0,6.2-8.31h0a1.42,1.42,0,0,0-.15-1.71h0a1.41,1.41,0,0,0-1.05-.47h0a1.39,1.39,0,0,0-.95.37"/></g></g></g></g><g id="g756"><g id="g758"><g id="g764"><g id="g766"><path id="path774" class="cls-29" d="M151.63,38.74a22.83,22.83,0,0,0-4.61,3.1h0a22.89,22.89,0,0,0-3.85,4h0a1.45,1.45,0,0,0-.13,1.48h0A1.44,1.44,0,0,0,145,48h0a23.33,23.33,0,0,0,4.62-3.1h0a22.83,22.83,0,0,0,3.85-4h0a1.45,1.45,0,0,0,.13-1.48h0a1.45,1.45,0,0,0-1.31-.82h0a1.44,1.44,0,0,0-.63.14"/></g></g></g></g><g id="g776"><g id="g778"><g id="g784"><g id="g786"><path id="path794" class="cls-30" d="M168.3,45.33A79.58,79.58,0,0,0,159,50h0a80.32,80.32,0,0,0-8.67,5.69h0a1.44,1.44,0,0,0-.45,1.66h0a1.42,1.42,0,0,0,1.86.78h0A81.87,81.87,0,0,0,161,53.46h0a79.35,79.35,0,0,0,8.67-5.69h0a1.41,1.41,0,0,0,.45-1.66h0a1.42,1.42,0,0,0-1.31-.88h0a1.44,1.44,0,0,0-.54.1"/></g></g></g></g><g id="g796"><g id="g798"><g id="g804"><g id="g806"><path id="path814" class="cls-31" d="M166.12,62.85a22.84,22.84,0,0,0-5.4,1.34h0a23.77,23.77,0,0,0-5,2.44h0A1.48,1.48,0,0,0,155.1,68h0a1.46,1.46,0,0,0,1.59,1.3h0a22.72,22.72,0,0,0,5.4-1.34h0a22.61,22.61,0,0,0,5-2.44h0a1.48,1.48,0,0,0,.63-1.35h0a1.46,1.46,0,0,0-1.44-1.3h-.15"/></g></g></g></g><g id="g816"><g id="g818"><g id="g824"><g id="g826"><path id="path834" class="cls-32" d="M179.52,74.75A80.41,80.41,0,0,0,169.22,76h0a80.49,80.49,0,0,0-10.1,2.39h0a1.4,1.4,0,0,0-1,1.4h0a1.42,1.42,0,0,0,1.47,1.37h0a82.25,82.25,0,0,0,10.3-1.22h0A78.73,78.73,0,0,0,180,77.52h0a1.44,1.44,0,0,0,1-1.41h0a1.42,1.42,0,0,0-1.42-1.36h-.06"/></g></g></g></g><g id="g836"><g id="g838"><g id="g844"><g id="g846"><path id="path854" class="cls-33" d="M160.43,90.47a1.44,1.44,0,0,0-1.05,1h0a1.45,1.45,0,0,0,1.05,1.76h0a23.07,23.07,0,0,0,5.53.59h0a22.54,22.54,0,0,0,5.52-.59h0a1.44,1.44,0,0,0,1.05-1h0a1.45,1.45,0,0,0-1.05-1.76h0a23.05,23.05,0,0,0-5.52-.6h0a23.08,23.08,0,0,0-5.53.6"/></g></g></g></g><g id="g856"><g id="g858"><g id="g864"><g id="g866"><path id="path874" class="cls-34" d="M158.2,103.62a1.42,1.42,0,0,0,.92,1.78h0a78.73,78.73,0,0,0,10.1,2.38h0a78.68,78.68,0,0,0,10.3,1.22h0a1.42,1.42,0,0,0,1.41-1h0a1.41,1.41,0,0,0-.92-1.78h0a78.73,78.73,0,0,0-10.1-2.38h0a80.42,80.42,0,0,0-10.3-1.22h-.06a1.42,1.42,0,0,0-1.35,1"/></g></g></g></g><g id="g876"><g id="g878"><g id="g884"><g id="g886"><path id="path894" class="cls-35" d="M155.35,115.1a1.45,1.45,0,0,0,.38,2h0a23.33,23.33,0,0,0,5,2.45h0a22.35,22.35,0,0,0,5.4,1.33h0a1.45,1.45,0,0,0,1.34-.62h0a1.46,1.46,0,0,0-.38-2h0a23.1,23.1,0,0,0-5-2.45h0a23.19,23.19,0,0,0-5.4-1.33h-.14a1.46,1.46,0,0,0-1.2.64"/></g></g></g></g><g id="g322"><g id="g328"><g id="g342"><g class="cls-36"><g id="g340" class="cls-4"><g id="g338"><path id="path336" class="cls-5" d="M67.25,127.73l30.07,38,3.32-5.13Z"/></g></g></g></g></g></g><g id="g184"><g id="g190"><g id="g250"><g class="cls-37"><g id="g248" class="cls-4"><g id="g246"><g class="cls-38"><g id="g244"><g id="g242"><g class="cls-39"><g id="g240"><g id="g238"><path id="path236" class="cls-40" d="M116.17,149.59,67.25,127.73l2.08,60.94,14-16.16,11.23,17.91,14.13-12.1L97.82,160.2Z"/></g></g></g></g></g></g></g></g></g></g></g></g><g id="g132"><g id="g138"><g id="g152"><g class="cls-41"><g id="g150" class="cls-4"><g id="g148"><path id="path146" class="cls-5" d="M146.57,198.07a6.15,6.15,0,0,1-5.7,4H40.13a6.15,6.15,0,0,1-5.7-4l-.38,2.8a6.28,6.28,0,0,0,6.08,7.23H140.87a6.28,6.28,0,0,0,6.08-7.23Z"/></g></g></g></g></g><g id="g154"><path id="path156" class="cls-42" d="M75.89,106a5,5,0,1,1-5-5,5,5,0,0,1,5,5"/></g><g id="g158"><path id="path160" class="cls-42" d="M115.1,106a5,5,0,1,1-5-5,5,5,0,0,1,5,5"/></g></g><g id="g162"><g id="g164"><g id="g170"><g id="g172"><path id="path180" class="cls-43" d="M68.35,83.74v19.77A2.48,2.48,0,0,0,70.82,106h0a2.47,2.47,0,0,0,2.47-2.47h0V83.74A17.23,17.23,0,0,1,90.5,66.53h0a17.23,17.23,0,0,1,17.21,17.21h0v19.77a2.47,2.47,0,0,0,2.47,2.47h0a2.48,2.48,0,0,0,2.47-2.47h0V83.74A22.18,22.18,0,0,0,90.5,61.59h0A22.18,22.18,0,0,0,68.35,83.74"/></g></g></g></g></g></g></svg>